PathFileType	4	(X/Y/Z)	c:\Git\powerlifing_model_clean\simulations\HC835B\Session1\HC835B_OGW_0002\marker_experimental.trc
DataRate	CameraRate	NumFrames	NumMarkers	Units	OrigDataRate	OrigDataStartFrame	OrigNumFrames
240.000000	240.000000	4	38	mm	240.000000	327	436
Frame#	Time	RPSI			LPSI			RASI			LASI			RTH1			RTH2			RTH3			RTH4			RSK1			RSK2			RSK3			RSK4			RCAL1			RCAL2			RCAL3			RST			RPT			RTN			RFMB			RSMB			RVMB			RFMH			RSMH			RVMH			RPM			LTH1			LTH2			LTH3			LTH4			LSK1			LSK2			LSK3			LSK4			LCAL1			LCAL2			LCAL3			LFMH			LVMH			
		X1	Y1	Z1	X2	Y2	Z2	X3	Y3	Z3	X4	Y4	Z4	X5	Y5	Z5	X6	Y6	Z6	X7	Y7	Z7	X8	Y8	Z8	X9	Y9	Z9	X10	Y10	Z10	X11	Y11	Z11	X12	Y12	Z12	X13	Y13	Z13	X14	Y14	Z14	X15	Y15	Z15	X16	Y16	Z16	X17	Y17	Z17	X18	Y18	Z18	X19	Y19	Z19	X20	Y20	Z20	X21	Y21	Z21	X22	Y22	Z22	X23	Y23	Z23	X24	Y24	Z24	X25	Y25	Z25	X26	Y26	Z26	X27	Y27	Z27	X28	Y28	Z28	X29	Y29	Z29	X30	Y30	Z30	X31	Y31	Z31	X32	Y32	Z32	X33	Y33	Z33	X34	Y34	Z34	X35	Y35	Z35	X36	Y36	Z36	X37	Y37	Z37	X38	Y38	Z38	

328	1.3625	411.9775390625001	1149.234252929688	-259.0334472656251	521.7046508789064	1143.196533203125	-264.6295166015626	358.1692810058594	1113.727661132813	-47.63896942138673	602.8604125976564	1107.30078125	-60.29402160644533	295.6067199707032	828.5264282226565	-106.4556274414063	308.5646667480469	819.2278442382815	-48.01699447631837	313.6889648437501	749.0703125000001	-81.04701995849611	338.2776794433594	741.1048583984376	-28.31922340393067	377.0725097656251	297.3027648925782	-155.4129638671875	377.5436706542969	282.9782714843751	-95.50112915039064	384.8861083984376	241.4962158203126	-139.7087097167969	398.2821350097657	229.0604705810547	-82.08034515380861	457.8513183593751	94.52270507812501	-197.4634552001954	488.1411132812501	57.27698135375978	-184.8618774414063	424.248016357422	57.6366653442383	-194.2436523437501	496.5373840332032	75.00415039062501	-116.6638946533203	395.6640930175782	72.02542877197267	-137.1638641357422	478.839569091797	97.08454895019534	-62.48111724853517	471.379364013672	81.59798431396486	-30.70641708374024	422.9551696777345	106.541374206543	-26.28460311889649	380.6348571777344	49.3147659301758	-93.9574661254883	468.6078491210939	56.43459701538087	24.46498680114747	414.4168701171876	72.7942581176758	33.87323760986329	359.8110961914063	46.41873168945313	-15.47203159332276	421.8165283203126	64.29582977294923	91.85809326171876	690.5526733398439	831.722351074219	-75.98870086669923	699.9117431640626	842.3018798828127	-16.26270484924317	701.4583740234376	761.9802856445314	-27.89131546020509	693.7528076171876	770.962829589844	31.71773147583009	646.6178588867189	437.8923339843751	-207.0046691894532	661.0557250976564	391.6019287109376	-184.9566650390625	643.8651123046876	386.9164428710939	-231.5060272216797	641.5900268554689	339.3376159667969	-201.5263061523438	565.7354125976564	325.9597473144532	-349.5965270996094	586.3031005859376	301.0745544433594	-385.1219787597657	529.9341430664064	300.2687988281251	-367.8511047363282	558.9809570312501	131.5048828125	-229.9536590576172	646.6204223632814	138.3934936523438	-298.6694946289063	
329	1.366666666666667	412.0355834960939	1150.299682617188	-252.7261199951172	521.8560180664064	1144.61669921875	-258.4199829101563	358.0502624511719	1114.676513671875	-41.69293975830079	602.3363647460939	1108.894409179688	-53.86899948120119	295.4405822753907	829.4498291015627	-102.8187026977539	309.2754821777344	819.4981079101565	-43.7798080444336	313.5230407714844	749.3906860351564	-78.14566040039064	338.0727233886719	740.9735107421876	-25.46804428100587	377.2838439941407	297.5758056640626	-155.3951568603516	377.3742370605469	283.2735595703126	-95.48875427246095	385.0037536621095	241.8295440673829	-139.7353210449219	397.9912719726564	229.3027343750001	-82.02544403076173	457.9277648925782	94.66622161865236	-197.4011688232422	487.8392333984376	56.99174880981447	-185.2362060546875	424.3022460937501	57.79860687255861	-194.2256164550782	496.6562500000001	75.10926818847658	-116.6067504882813	395.6953125000001	72.14531707763673	-137.1803894042969	478.8393859863282	97.23353576660159	-62.37261962890626	471.3627014160157	81.66005706787111	-30.65685462951661	422.9050598144532	106.5429763793946	-26.29320716857911	380.6281127929688	49.38695144653322	-93.94467163085939	468.5308532714845	56.4039878845215	24.47318649291993	414.364471435547	72.7725296020508	33.86168289184571	359.7914123535157	46.3819923400879	-15.47507381439209	421.7463989257814	64.23088836669923	91.91304779052736	691.0026855468751	833.6065673828127	-67.1999969482422	699.5499267578126	844.6846923828127	-7.542682170867922	701.5911865234376	764.3868408203126	-18.27281951904297	693.4755859375001	773.8898925781252	41.20870208740235	646.6134643554689	437.1055908203126	-193.8474121093751	660.8638916015626	391.0403442382814	-170.9070587158203	643.7625122070314	385.6386108398439	-217.3438568115235	641.4743652343751	338.5940551757813	-186.6486053466797	565.7736206054689	322.6878356933594	-334.7074584960938	586.2890014648439	297.0260009765626	-369.7194824218751	529.9287109375001	296.4740905761719	-352.5014648437501	559.2419433593751	130.5242462158203	-211.4182434082032	646.9006347656251	136.2074279785157	-280.0938110351563	
330	1.370833333333333	412.0938110351564	1151.488891601563	-246.4889526367188	522.0058593750001	1145.772338867188	-252.0830993652344	357.9468383789063	1115.534423828125	-35.72131729125977	601.7696533203126	1110.449462890625	-47.37488555908204	295.3799743652344	829.9862060546877	-99.15401458740237	309.2266235351563	819.5336914062502	-40.10663223266602	313.4362182617188	749.7399291992189	-75.21672821044923	337.9613342285157	740.8452758789064	-22.57420539855957	377.5622863769532	298.0868225097657	-155.3578796386719	377.2500610351563	283.5189208984376	-95.45594024658205	385.0588684082032	242.1806793212891	-139.3762512207032	397.728729248047	229.5703582763672	-81.94338226318361	458.0433959960939	94.89075469970705	-197.3341979980469	488.1347656250001	57.39298629760744	-184.8784484863282	424.3771362304689	57.97103118896486	-194.1932983398438	496.5838928222657	75.14417266845705	-116.5810012817383	395.7651977539064	72.24571990966798	-137.1639404296875	478.853729248047	97.18951416015628	-62.33197021484376	471.3605957031251	81.67881774902345	-30.58214378356934	422.8855895996095	106.5583724975586	-26.17638015747071	380.6336975097657	49.46317672729494	-93.88850402832033	468.4623107910157	56.380184173584	24.52155494689942	414.3252868652345	72.71959686279298	33.90528869628907	359.7389831542969	46.37829971313477	-15.48387145996094	421.7393493652345	64.13835906982423	91.95517730712892	691.3928833007814	835.4307250976565	-57.8445510864258	698.9932250976564	846.8543701171877	0.9820347428321841	701.7282714843751	766.7204589843751	-8.687131881713869	693.0701904296876	776.7558593750002	50.59414672851564	646.4404296875001	436.1138916015626	-180.5019836425782	660.7065429687501	390.5950622558595	-156.7919464111328	643.4433593750001	384.2376098632814	-202.9185333251954	641.5590209960939	337.6739807128907	-171.473388671875	565.5441284179689	319.0795898437501	-319.7401733398438	586.3478393554689	292.9158325195313	-354.1976623535157	529.8983764648439	292.4597167968751	-336.8930053710938	559.2993774414064	129.3197937011719	-193.1215362548829	647.2451782226564	133.927230834961	-261.2713623046876	
331	1.375	412.0625305175782	1152.497680664063	-240.1711120605469	522.0462036132814	1146.913208007813	-245.8480224609376	357.8536987304688	1116.335205078125	-29.76516342163087	601.1972045898439	1111.864379882813	-40.87947082519532	295.3092956542969	830.3647460937502	-95.37430572509767	309.4757080078126	819.437927246094	-36.18071746826173	313.3400878906251	750.0532836914064	-72.21334075927736	337.8637695312501	740.6737670898439	-19.58896064758301	377.8521728515626	298.4916076660157	-155.2020568847657	377.1929016113282	283.7396545410157	-95.38474273681642	385.2178955078126	242.7027740478516	-139.3353576660157	397.4695434570314	229.7784423828126	-81.7804412841797	458.1451721191407	94.97776031494142	-197.252914428711	488.2961425781251	57.4369583129883	-184.7504425048828	424.4849548339845	58.14662551879884	-194.1643371582032	496.6894531250001	75.26454162597658	-116.4638061523438	395.8465270996095	72.39251708984376	-137.112045288086	478.913299560547	97.25532531738284	-62.19194793701173	471.3611755371095	81.65537261962892	-30.49389457702637	422.8947753906251	106.5506973266602	-26.09934043884278	380.7062377929688	49.5297088623047	-93.84822845458986	468.419158935547	56.33555221557619	24.57457542419434	414.3008117675782	72.6459426879883	33.94208908081055	359.7383422851563	46.34729003906251	-15.4637451171875	421.6519165039064	64.02597045898439	92.04732513427736	691.7254028320314	837.1998291015627	-49.57761383056642	698.2365722656251	849.1932373046877	9.356451988220217	701.7434692382814	768.9348144531252	0.7762604951858523	692.5819091796876	779.523620605469	59.92599868774415	646.2965087890626	435.0286865234376	-167.1965484619141	660.5872802734376	389.8687744140626	-142.6712188720703	643.2584228515626	382.7092285156251	-188.8269958496094	641.4390258789064	336.7003173828126	-156.530990600586	565.4775390625001	315.2349853515626	-304.6967773437501	586.2764892578126	288.3392639160157	-338.4469299316407	529.9611206054689	288.3132934570313	-321.3739929199219	559.4652099609376	128.3532409667969	-173.4852294921875	647.5066528320314	131.5138397216797	-242.3810272216797	
